<svg width="320" height="384" viewBox="0 0 320 384" fill="none" xmlns="http://www.w3.org/2000/svg">
<path d="M72.558 152.765C67.4025 72.7195 -73.6951 13.2957 -93.2317 0L-75.0518 440.93H212.027C217.273 432.971 228.254 415.478 230.207 409.183C232.649 401.314 219.896 394.802 212.027 386.933C204.159 379.064 190.863 368.482 131.71 288.165C72.558 207.848 77.7134 232.811 72.558 152.765Z" fill="#F3BBAC"/>
<path d="M29.6859 285.302C3.63715 259.036 -12.8242 274.357 -17.7988 285.302V392.21H256.799C250.377 372.945 220.005 331.159 149.89 318.134C80.1554 310.808 62.2469 318.134 29.6859 285.302Z" fill="#2C2D76"/>
<path d="M82.1638 292.972L-2.80106 224.63C-3.8078 223.82 -5.30668 224.163 -5.86108 225.33L-103 429.805H342C332.038 399.966 257.856 323.076 251.53 316.555C251.22 316.235 250.86 316.081 250.418 316.021L83.1492 293.395C82.7883 293.346 82.4476 293.2 82.1638 292.972Z" stroke="#2C2D76"/>
</svg>
