<svg width="320" height="351" viewBox="0 0 320 351" fill="none" xmlns="http://www.w3.org/2000/svg">
<path d="M127.711 68.4904C110.362 45.5594 127.711 16.8956 127.711 6.03351V-0.000976562H351.288V349.999H323.831L251.87 309.115C227.933 284.927 180.06 233.051 180.06 219.051C180.06 201.551 177.344 185.409 180.06 135.775C182.775 86.1413 145.06 91.4214 127.711 68.4904Z" stroke="#2C2D76"/>
<path d="M93.5209 16.5026C147.228 9.86468 100.008 8.80865 99.4045 -31.1698L99.4045 -34.187L99.4045 -55.006L-30.4877 -51.9888C-28.2751 -48.4184 -23.1256 -40.9155 -20.2291 -39.4672C-16.6084 -37.6569 -6.04805 -31.1698 11.9045 -26.3422C26.2666 -22.4801 21.8112 -16.7876 17.7882 -14.4241C20.9563 -5.6741 28.6201 15.0242 33.9304 27.8173C40.5683 43.8087 39.814 23.1406 93.5209 16.5026Z" stroke="white"/>
<path d="M152.614 24.942C145.614 11.4248 146.982 2.71503 148.541 0.0498047H319.92V220.459C316.551 215.079 307.64 197.739 298.95 171.429C288.088 138.541 290.955 127.076 275.567 88.7567C260.179 50.4377 218.39 72.6144 190.179 57.2265C161.968 41.8386 161.364 41.8386 152.614 24.942Z" fill="#E5596D"/>
</svg>
